<svg width="98" height="52" viewBox="0 0 98 52" version="1.1" xmlns="http://www.w3.org/2000/svg" xmlns:xlink="http://www.w3.org/1999/xlink">
<title>CACL</title>
<desc>Created using Figma</desc>
<g id="Canvas" transform="translate(14575 -2447)">
<g id="CACL">
<g id="Vector">
<use xlink:href="#path0_fill" transform="translate(-14574.5 2490.08)" fill="#343434"/>
</g>
<g id="Vector">
<use xlink:href="#path1_fill" transform="translate(-14538.3 2490.18)" fill="#343434"/>
</g>
<g id="Vector">
<use xlink:href="#path2_fill" transform="translate(-14549.8 2479.1)" fill="#343434"/>
</g>
<g id="Vector">
<use xlink:href="#path3_fill" transform="translate(-14528.9 2490.18)" fill="#343434"/>
</g>
<g id="Vector">
<use xlink:href="#path4_fill" transform="translate(-14556.2 2490.15)" fill="#343434"/>
</g>
<g id="Vector">
<use xlink:href="#path5_fill" transform="translate(-14564.9 2490.17)" fill="#343434"/>
</g>
<g id="Vector">
<use xlink:href="#path6_fill" transform="translate(-14547.8 2490.19)" fill="#343434"/>
</g>
<g id="Vector">
<use xlink:href="#path7_fill" transform="translate(-14514.7 2466.68)" fill="#343434"/>
</g>
<g id="Vector">
<use xlink:href="#path8_fill" transform="translate(-14533 2451.21)" fill="#343434"/>
</g>
<g id="Vector">
<use xlink:href="#path9_fill" transform="translate(-14512.4 2447.61)" fill="#343434"/>
</g>
<g id="Vector">
<use xlink:href="#path10_fill" transform="translate(-14494.8 2490.18)" fill="#343434"/>
</g>
<g id="Vector">
<use xlink:href="#path11_fill" transform="translate(-14485.2 2490.17)" fill="#343434"/>
</g>
<g id="Vector">
<use xlink:href="#path12_fill" transform="translate(-14516.1 2490.23)" fill="#343434"/>
</g>
<g id="Vector">
<use xlink:href="#path13_fill" transform="translate(-14498.6 2490.23)" fill="#343434"/>
</g>
<g id="Vector">
<use xlink:href="#path14_fill" transform="translate(-14509.4 2490.13)" fill="#343434"/>
</g>
<g id="Vector">
<use xlink:href="#path15_fill" transform="translate(-14549.9 2450.72)" fill="#343434"/>
</g>
</g>
</g>
<defs>
<path id="path0_fill" d="M 7.24222 0.321086C 6.1572 0.213988 5.07219 -0.0212753 3.99244 0.00154868C 1.93126 0.0471966 0.689986 1.10236 0.11412 3.09683C 0.0983186 3.15477 0.0386252 3.19866 0 3.24958L 0 4.96138C 0.066092 5.09316 0.124708 5.22856 0.175569 5.36694C 0.289586 5.81498 0.492183 6.23565 0.771408 6.60414C 1.05063 6.97262 1.40083 7.28144 1.80134 7.51239C 3.79931 8.6413 5.82889 8.33054 7.84267 7.68796L 7.84267 6.02006L 7.27733 6.10784C 6.5417 6.21845 5.80782 6.41333 5.07219 6.4221C 3.3165 6.44668 2.06118 4.98771 2.5001 3.50415C 2.78979 2.52447 3.80985 1.76075 4.97563 1.79235C 5.93072 1.81869 6.8823 1.98899 7.89358 2.10135C 7.87453 1.78562 7.87453 1.46902 7.89358 1.15328C 7.95327 0.637108 7.7619 0.366733 7.24222 0.321086Z"/>
<path id="path1_fill" d="M 6.48025 4.43799C 7.58107 3.88144 7.99541 3.05802 7.74962 1.91858C 7.50382 0.779136 6.65055 0.0277014 5.48302 0.0101445C 3.83794 -0.0126794 2.19461 0.0101445 0.54953 0.0101445C 0.361671 0.0101445 0.173814 0.0399913 6.42953e-07 0.0540368L 6.42953e-07 7.97395L 2.05416 7.97395L 2.05416 1.65347C 2.87055 1.65347 3.61497 1.63767 4.35938 1.65347C 4.88609 1.66927 5.33905 1.88698 5.32501 2.4962C 5.31096 3.07207 4.84746 3.23359 4.36289 3.28802C 2.99872 3.44076 2.76346 3.63915 2.35965 5.10691C 2.68586 5.12806 3.0131 5.12806 3.33932 5.10691C 3.89061 5.03317 4.23297 5.25439 4.51914 5.71613C 4.93349 6.38505 5.39699 7.02237 5.86225 7.6632C 5.95706 7.79663 6.10453 7.98098 6.2327 7.98625C 7.0491 8.01609 7.86549 8.00205 8.80127 8.00205L 6.21865 4.59425C 6.36789 4.5012 6.42231 4.46608 6.48025 4.43799Z"/>
<path id="path2_fill" d="M 47.3036 8.5727e-07L 1.28591e-06 8.5727e-07L 1.28591e-06 4.92822L 47.3036 4.92822L 47.3036 8.5727e-07Z"/>
<path id="path3_fill" d="M 2.01027 4.72124C 3.18833 4.72124 4.32251 4.73002 5.45668 4.71246C 5.6463 4.71246 5.91492 4.64223 6.00973 4.5088C 6.29415 4.10499 6.50834 3.65202 6.82612 3.08494C 5.91843 3.08494 5.13188 3.14463 4.36816 3.06914C 3.34986 2.96906 2.56331 3.15692 2.26133 4.26476C 2.24202 4.33323 2.17003 4.3859 2.02958 4.56498L 2.02958 1.65931L 7.4371 1.65931C 7.28599 1.2996 7.15758 0.930766 7.05261 0.554987C 6.95605 0.0985075 6.712 -0.00507882 6.27132 0.00018825C 4.36289 0.0247679 2.45445 0.00896531 0.546017 0.0124767C 0.358158 0.0124767 0.170302 0.0423234 2.14318e-07 0.0563689L 2.14318e-07 8.00964C 2.22446 8.00964 4.38922 8.00964 6.56452 8.00964C 6.63507 8.0091 6.70465 7.99309 6.76835 7.96276C 6.83205 7.93242 6.88832 7.8885 6.93322 7.83407C 7.17199 7.37935 7.37214 6.90356 7.63549 6.33823L 2.01027 6.33823L 2.01027 4.72124Z"/>
<path id="path4_fill" d="M 5.79378 4.69956C 5.58045 4.58384 5.3994 4.41668 5.26707 4.21324C 4.38922 2.95968 3.51138 1.69909 2.61071 0.457818C 2.47377 0.268204 2.23499 0.0469881 2.02782 0.0311869C 1.36066 -0.0232395 0.686475 0.0101168 5.89373e-07 0.0101168L 5.89373e-07 7.99324L 1.78554 7.99324L 1.78554 2.59449L 1.94179 2.55236C 3.10757 4.22026 4.26984 5.88816 5.45317 7.55256C 5.59187 7.74744 5.80431 7.98621 6.01675 8.01431C 6.52543 8.05576 7.03633 8.0628 7.54596 8.03537L 7.54596 0.0768339L 5.79027 0.0768339L 5.79378 4.69956Z"/>
<path id="path5_fill" d="M 2.04889 4.72432C 3.2252 4.72432 4.36113 4.73662 5.49531 4.71204C 5.60579 4.71011 5.71472 4.68577 5.81552 4.6405C 5.91632 4.59524 6.00688 4.52998 6.08171 4.44868C 6.32895 4.04877 6.55174 3.63426 6.74887 3.20741C 6.65231 3.14947 6.61544 3.11085 6.5733 3.10909C 5.87103 3.09856 5.16875 3.16176 4.46647 3.07047C 3.34634 2.92123 2.56155 3.23199 2.21919 4.37319C 2.20515 4.42059 2.13492 4.45044 2.04362 4.53471L 2.04362 1.61324L 7.47748 1.61324C 7.35723 1.32186 7.25864 1.02199 7.18253 0.716087C 7.08421 0.112129 6.74185 -0.0160374 6.17125 0.00151954C 4.78952 0.0436561 3.40604 0.0155654 2.02431 0.0155654L -2.67897e-08 0.0155654L -2.67897e-08 8.01449C 2.23499 8.01449 4.42434 8.01449 6.61544 8.01449C 6.67772 8.01498 6.73936 8.00188 6.79607 7.97611C 6.85277 7.95033 6.90317 7.9125 6.94375 7.86526C 7.18604 7.39473 7.39848 6.9084 7.66534 6.32903L 2.04713 6.32903L 2.04889 4.72432Z"/>
<path id="path6_fill" d="M 0.955095 0.0100202C 0.88415 0.0159639 0.815541 0.0382319 0.754628 0.0750844C 0.693715 0.111937 0.642148 0.162374 0.603957 0.222457C 0.398542 0.642067 0.231751 1.08275 -4.28635e-07 1.63579L 3.25856 1.63579L 3.25856 7.95627L 5.167 7.95627L 5.167 1.63579L 6.38544 1.63579C 7.7303 1.63579 8.0077 1.43037 8.49227 0.00124125C 5.93774 -0.000514444 3.44642 -0.0022696 0.955095 0.0100202Z"/>
<path id="path7_fill" d="M 6.01851 4.82215e-07C 4.26282 0.955096 1.35013 2.54751 2.14318e-06 3.2849L 0.286175 3.99771C 0.860286 5.44264 1.45371 6.88055 2.005 8.33426C 2.44392 9.4895 3.3165 9.91438 4.47174 9.91438L 9.73881 9.91438L 10.5921 9.91438L 6.01851 4.82215e-07Z"/>
<path id="path8_fill" d="M 21.5967 10.0025C 20.1623 6.87564 18.7209 3.75402 17.3058 0.616606C 17.0934 0.142569 16.8388 -0.00842006 16.3244 0.000358393C 14.3493 0.0337165 12.3741 0.0266937 10.4007 0.000358393C 9.95652 0.000358393 9.69843 0.116234 9.48072 0.527065C 6.73834 5.61857 3.97312 10.7101 1.22898 15.8016C 0.819906 16.5583 0.472279 17.3483 -1.28591e-06 18.3104C 2.59666 17.5643 4.99318 16.8971 7.3739 16.1808C 8.25174 15.9174 8.88203 15.3029 9.30515 14.4971C 9.72828 13.6912 10.1953 12.8854 10.5868 12.0532C 11.426 10.2711 12.2284 8.47332 13.0887 6.58595C 13.1817 6.78083 13.2467 6.8932 13.2906 7.01083C 14.0771 9.11765 14.8479 11.2438 15.659 13.3489C 15.7313 13.497 15.7529 13.6648 15.7204 13.8264L 15.824 13.7755C 17.9748 12.7098 20.0061 11.6423 21.8794 10.6153C 21.767 10.3519 21.6775 10.1781 21.5967 10.0025Z"/>
<path id="path9_fill" d="M 12.274 0.38274C 9.64869 1.92072 7.02452 3.45988 4.40152 5.0002C 3.0707 5.78324 1.69951 6.42934 2.14318e-07 6.40476C 0.0645284 6.73058 0.155539 7.05059 0.27213 7.36161C 0.721587 8.30968 1.17982 9.25424 1.67668 10.1707C 2.17354 11.0872 2.94956 11.3505 3.86954 10.8045C 6.78516 9.07106 9.69024 7.32006 12.5848 5.55149C 12.7498 5.45142 12.957 5.24073 12.9587 5.07921C 12.9868 3.42184 12.9763 1.76271 12.9763 0C 12.6901 0.159768 12.4742 0.265109 12.274 0.38274Z"/>
<path id="path10_fill" d="M 7.68114 3.19282C 8.30617 1.67415 7.15444 0.0431125 5.48478 0.0132657C 3.77473 -0.016581 2.06293 0.0132657 0.351136 0.0132657C 0.23197 0.0234077 0.114244 0.0463642 -1.92886e-06 0.0817375L -1.92886e-06 7.95074L 2.04713 7.95074L 2.04713 1.64606C 2.83544 1.64606 3.57458 1.63552 4.31373 1.64606C 4.84044 1.65659 5.31096 1.84269 5.33905 2.43963C 5.36714 3.03656 4.87028 3.22442 4.36465 3.28411C 3.03032 3.44213 2.66162 3.75113 2.28766 5.10476C 2.6174 5.12582 2.94814 5.12582 3.27787 5.10476C 3.8713 5.02751 4.25404 5.254 4.56304 5.76315C 4.96158 6.41802 5.42332 7.03251 5.87103 7.65754C 5.96759 7.79097 6.11156 7.97883 6.24148 7.9841C 7.05787 8.01395 7.87427 7.9999 8.81181 7.9999L 6.37491 4.77997C 6.89284 4.17074 7.4529 3.74937 7.68114 3.19282Z"/>
<path id="path11_fill" d="M 2.04538 6.34342L 2.04538 4.72994C 3.22696 4.72994 4.34533 4.74048 5.4637 4.72116C 5.6779 4.72116 5.99042 4.65445 6.08522 4.50873C 6.36635 4.05276 6.61963 3.5802 6.84368 3.09364C 5.93775 3.09364 5.1512 3.15685 4.38572 3.07784C 3.35864 2.9725 2.58613 3.17967 2.27889 4.28575C 2.25431 4.37353 2.16652 4.44552 2.02431 4.63689L 2.02431 1.6329L 7.41779 1.6329C 7.29138 1.2449 7.17374 0.963987 7.11054 0.672542C 6.99993 0.165148 6.74009 -0.0297331 6.19407 0.00362497C 5.07746 0.05454 3.95733 0.0194255 2.83895 0.0194255L 1.07159e-06 0.0194255L 1.07159e-06 8.01659C 2.23499 8.01659 4.42258 8.01659 6.61193 8.00781C 6.6828 8.00009 6.75107 7.9767 6.8118 7.93936C 6.87253 7.90201 6.9242 7.85163 6.96307 7.79186C 7.19131 7.35118 7.38443 6.89119 7.63374 6.34342L 2.04538 6.34342Z"/>
<path id="path12_fill" d="M 2.08927 -9.64429e-07L 1.07159e-06 -9.64429e-07L 1.07159e-06 7.95503C 1.79783 7.95503 3.54825 7.95503 5.29867 7.94625C 5.37018 7.941 5.43961 7.91983 5.50188 7.88429C 5.56416 7.84874 5.61769 7.79974 5.65859 7.74084C 5.88683 7.2984 6.0782 6.83841 6.34682 6.24499L 2.08927 6.24499L 2.08927 -9.64429e-07Z"/>
<path id="path13_fill" d="M 2.14318e-07 7.92519L 2.00851 7.92519L 2.00851 0L 2.14318e-07 0L 2.14318e-07 7.92519Z"/>
<path id="path14_fill" d="M 7.92034 1.05341C 7.01536 0.374654 5.9159 0.00529434 4.78468 -1.28591e-06C 4.32765 0.041846 3.87376 0.112804 3.42577 0.212438C 1.77894 0.681208 0.556976 1.64684 0.132099 3.37268C -0.285755 5.0599 0.307668 6.44163 1.6297 7.5126C 3.38539 8.95051 6.21381 8.92768 7.9853 7.49855C 10.1624 5.73935 10.1325 2.71605 7.92034 1.05341ZM 5.30261 6.78047C 5.12704 6.80505 4.95147 6.81032 4.88124 6.81559C 2.71121 6.81559 1.35055 4.92822 2.18801 3.22871C 2.69014 2.2069 4.01042 1.56608 5.24642 1.7434C 6.48243 1.92072 7.51478 2.93025 7.68332 4.089C 7.85187 5.24776 6.68082 6.58559 5.30261 6.78047Z"/>
<path id="path15_fill" d="M 50.3637 7.40861C 50.3637 6.95681 50.3637 6.50443 50.3637 6.05146C 50.3637 5.59849 50.3637 5.1543 50.3637 4.71889C 50.3533 4.54246 50.3339 4.36667 50.3058 4.19218C 49.816 4.51699 49.0593 5.01033 48.0796 5.63009C 45.0335 7.59471 41.968 9.45399 38.8043 11.1956L 38.7586 11.1026C 36.8871 12.1261 34.8557 13.1918 32.7033 14.2628L 32.5997 14.3137C 32.554 14.47 32.4241 14.5806 32.1888 14.6912C 27.0798 17.1299 21.9216 19.4316 16.3876 20.5745C 15.2002 20.8375 13.9984 21.0309 12.7885 21.1539C 10.8309 21.3576 8.84519 21.3857 6.91569 20.8115C 5.04061 20.2532 4.04689 19.0717 4.03636 17.4757C 4.03965 16.8882 4.14602 16.3059 4.35062 15.7552C 4.96863 13.9995 6.09402 12.6458 7.53896 11.5029C 11.8334 8.10562 16.4017 5.35796 22.0884 5.14903C 22.1797 5.14903 22.3535 4.88217 22.3728 4.74698C 22.375 4.73538 22.375 4.72347 22.3728 4.71187C 21.8742 3.57594 21.4212 2.40489 20.7821 1.34797C 20.1255 0.261194 19.0264 -0.135592 17.7641 0.0399771C 17.222 0.111657 16.6858 0.221961 16.1594 0.370047C 11.4682 1.72368 7.27209 3.99555 3.72911 7.35945C 1.44671 9.53124 -0.00699829 12.1279 2.4474e-05 15.2601C 2.4474e-05 15.5831 0.0169976 15.912 0.050941 16.2467C 0.317806 18.9698 1.44145 21.3382 3.65361 23.0079C 5.82755 24.6988 8.45566 25.7042 11.2031 25.896C 13.9262 26.0909 16.6159 26.2033 19.3038 25.6379C 23.6931 24.7162 27.7715 22.9693 31.7587 20.9766L 32.461 20.6254C 35.0032 19.2542 43.1479 14.7544 47.4827 12.3509C 48.2622 11.9102 49.0417 11.473 49.8247 11.0324C 50.0022 10.9558 50.1509 10.8251 50.2496 10.6589C 50.3483 10.4927 50.3919 10.2996 50.3743 10.1071C 50.3655 9.20643 50.3637 8.30225 50.3637 7.40861Z"/>
</defs>
</svg>
